<svg xmlns="http://www.w3.org/2000/svg" width="180" height="140" viewBox="0 0 180 140">
  <style>
    .line { fill:white; stroke:#111111; stroke-width:2; stroke-linecap:round; stroke-linejoin:round; }
    .ink { fill:#111111; stroke:none; }
    .none { fill:none; stroke:#111111; stroke-width:2; stroke-linecap:round; stroke-linejoin:round; }
    @keyframes bob { 0%,100%{transform:translateY(0)} 50%{transform:translateY(-4px)} }
    @keyframes tail { 0%,100%{transform:rotate(-7deg)} 50%{transform:rotate(9deg)} }
    @keyframes blink { 0%,88%,100%{transform:scaleY(1)} 92%{transform:scaleY(.12)} }
    @keyframes paw { 0%,100%{transform:translateY(0)} 50%{transform:translateY(4px)} }
    @keyframes jump { 0%,100%{transform:translateY(0)} 45%,55%{transform:translateY(-15px)} }
    @keyframes zzz { 0%{opacity:0; transform:translate(0,0)} 30%{opacity:1} 100%{opacity:0; transform:translate(14px,-22px)} }
    @keyframes wiggle { 0%,100%{transform:rotate(-2deg)} 50%{transform:rotate(2deg)} }
  </style>
  <g style="animation:bob 2s ease-in-out infinite; transform-origin:80px 80px">
    <path class="line" d="M48 77 Q48 47 77 43 Q107 43 112 76 Q112 98 80 98 Q48 98 48 77"/>
    <path class="line" d="M55 49 L64 34 L72 48"/>
    <path class="line" d="M88 46 L99 34 L103 52"/>
    <circle class="ink" cx="70" cy="64" r="2"/>
    <circle class="ink" cx="88" cy="64" r="2"/>
    <path class="none" d="M76 72 Q80 75 84 72"/>
    <path class="none" d="M58 71 L45 67"/>
    <path class="none" d="M59 76 L45 78"/>
    <path class="none" d="M100 71 L114 67"/>
    <path class="none" d="M101 76 L116 78"/>
    <path class="none" d="M68 91 q5 6 10 0"/>
    <path class="none" d="M84 91 q5 6 10 0"/>
  </g>
</svg>
