<svg xmlns="http://www.w3.org/2000/svg" width="180" height="140" viewBox="0 0 180 140">
  <style>
    .line { fill:white; stroke:#111111; stroke-width:2; stroke-linecap:round; stroke-linejoin:round; }
    .ink { fill:#111111; stroke:none; }
    .none { fill:none; stroke:#111111; stroke-width:2; stroke-linecap:round; stroke-linejoin:round; }
    @keyframes bob { 0%,100%{transform:translateY(0)} 50%{transform:translateY(-4px)} }
    @keyframes tail { 0%,100%{transform:rotate(-7deg)} 50%{transform:rotate(9deg)} }
    @keyframes blink { 0%,88%,100%{transform:scaleY(1)} 92%{transform:scaleY(.12)} }
    @keyframes paw { 0%,100%{transform:translateY(0)} 50%{transform:translateY(4px)} }
    @keyframes jump { 0%,100%{transform:translateY(0)} 45%,55%{transform:translateY(-15px)} }
    @keyframes zzz { 0%{opacity:0; transform:translate(0,0)} 30%{opacity:1} 100%{opacity:0; transform:translate(14px,-22px)} }
    @keyframes wiggle { 0%,100%{transform:rotate(-2deg)} 50%{transform:rotate(2deg)} }
  </style>
  <g style="animation:jump 1.1s ease-in-out infinite; transform-origin:90px 70px">
    <circle class="line" cx="67" cy="54" r="16"/>
    <ellipse class="line" cx="105" cy="62" rx="34" ry="18" transform="rotate(-8 105 62)"/>
    <path class="line" d="M56 42 L62 31 L68 43"/>
    <path class="line" d="M74 42 L82 32 L83 46"/>
    <circle class="ink" cx="62" cy="53" r="1.8"/>
    <circle class="ink" cx="72" cy="53" r="1.8"/>
    <path class="none" d="M65 60 Q69 63 73 60"/>
    <path class="none" d="M52 55 L40 51"/>
    <path class="none" d="M53 61 L40 65"/>
    <path class="none" d="M82 75 L68 91"/>
    <path class="none" d="M96 78 L88 100"/>
    <path class="none" d="M123 72 L140 83"/>
    <path class="none" d="M128 57 Q151 43 145 23"/>
  </g>
  <path class="none" d="M42 112 q10 -8 21 0"/>
  <path class="none" d="M103 113 q12 -9 25 0"/>
</svg>
