<svg xmlns="http://www.w3.org/2000/svg" width="180" height="140" viewBox="0 0 180 140">
  <style>
    .line { fill:white; stroke:#111111; stroke-width:2; stroke-linecap:round; stroke-linejoin:round; }
    .ink { fill:#111111; stroke:none; }
    .none { fill:none; stroke:#111111; stroke-width:2; stroke-linecap:round; stroke-linejoin:round; }
    @keyframes bob { 0%,100%{transform:translateY(0)} 50%{transform:translateY(-4px)} }
    @keyframes shake { 0%,100%{transform:rotate(-2deg)} 50%{transform:rotate(2deg)} }
    @keyframes tail { 0%,100%{transform:rotate(-8deg)} 50%{transform:rotate(10deg)} }
    @keyframes paw { 0%,100%{transform:translateY(0)} 50%{transform:translateY(-4px)} }
    @keyframes heart { 0%,100%{opacity:.35; transform:scale(.9)} 50%{opacity:1; transform:scale(1.1)} }
    @keyframes pop { 0%,100%{transform:scale(1)} 50%{transform:scale(1.08)} }
    @keyframes roll { 0%,100%{transform:rotate(-5deg)} 50%{transform:rotate(5deg)} }
    @keyframes zzz { 0%{opacity:0; transform:translate(0,0)} 35%{opacity:1} 100%{opacity:0; transform:translate(12px,-18px)} }
  </style>
  <g style="animation:shake .7s ease-in-out infinite; transform-origin:76px 60px">
    <circle class="line" cx="67" cy="58" r="17"/>
    <ellipse class="line" cx="105" cy="66" rx="35" ry="17"/>
    <path class="line" d="M56 45 L62 35 L68 47"/>
    <path class="line" d="M74 45 L82 37 L83 50"/>
    <circle class="ink" cx="62" cy="57" r="1.8"/>
    <circle class="ink" cx="72" cy="57" r="1.8"/>
    <path class="none" d="M65 65 Q69 67 73 65"/>
    <path class="none" d="M53 59 L39 56"/>
    <path class="none" d="M54 64 L40 67"/>
    <path class="none" d="M83 80 L83 97"/>
    <path class="none" d="M99 81 L99 98"/>
    <path class="none" d="M122 80 L122 97"/>
    <path class="none" d="M134 75 L134 94"/>
    <path class="none" style="animation:tail 1s ease-in-out infinite; transform-origin:134px 58px" d="M134 58 Q154 39 141 24"/>
  </g>
  <path class="line" d="M35 93 Q49 107 65 93 Z"/>
  <circle class="ink" cx="46" cy="93" r="1.2"/>
  <circle class="ink" cx="55" cy="94" r="1.2"/>
</svg>
